<svg xmlns="http://www.w3.org/2000/svg" viewBox="0 0 512 512">
  <!-- Monitor -->
  <rect x="106" y="100" width="300" height="200" rx="5" fill="#495057" stroke="#212529" stroke-width="8"/>
  <rect x="126" y="120" width="260" height="160" rx="2" fill="#adb5bd" stroke="#212529" stroke-width="2"/>
  <!-- Stand -->
  <rect x="226" y="300" width="60" height="20" rx="2" fill="#343a40" stroke="#212529" stroke-width="2"/>
  <rect x="206" y="320" width="100" height="10" rx="2" fill="#343a40" stroke="#212529" stroke-width="2"/>
  <!-- Keyboard -->
  <rect x="156" y="340" width="200" height="30" rx="5" fill="#6c757d" stroke="#212529" stroke-width="2"/>
  <rect x="166" y="345" width="180" height="20" rx="2" fill="#dee2e6" stroke="#212529" stroke-width="1"/>
  <!-- Screen content -->
  <rect x="146" y="140" width="220" height="120" rx="2" fill="#f8f9fa" stroke="#212529" stroke-width="1"/>
  <rect x="156" y="150" width="80" height="10" rx="1" fill="#6c757d" stroke="none"/>
  <rect x="156" y="170" width="200" height="2" rx="1" fill="#6c757d" stroke="none"/>
  <rect x="156" y="180" width="200" height="2" rx="1" fill="#6c757d" stroke="none"/>
  <rect x="156" y="190" width="200" height="2" rx="1" fill="#6c757d" stroke="none"/>
  <rect x="156" y="200" width="200" height="2" rx="1" fill="#6c757d" stroke="none"/>
  <rect x="156" y="210" width="120" height="2" rx="1" fill="#6c757d" stroke="none"/>
  <rect x="156" y="230" width="60" height="20" rx="2" fill="#4ea8de" stroke="none"/>
</svg> 